<?xml version="1.0" encoding="utf-8"?>
<!-- Generator: Adobe Illustrator 16.0.0, SVG Export Plug-In . SVG Version: 6.00 Build 0)  -->
<!DOCTYPE svg PUBLIC "-//W3C//DTD SVG 1.1//EN" "http://www.w3.org/Graphics/SVG/1.1/DTD/svg11.dtd">
<svg version="1.1" id="Calque_1" xmlns="http://www.w3.org/2000/svg" xmlns:xlink="http://www.w3.org/1999/xlink" x="0px" y="0px"
	 width="236.86px" height="104.71px" viewBox="0 0 236.86 104.71" enable-background="new 0 0 236.86 104.71" xml:space="preserve">
<g>
	<g>
		<g>
			<path fill="#F8F8F8" d="M46.183,5.646c11.81,0,21.801,5.385,28.099,9.896c7.471,5.353,11.318,10.526,12.309,12.5
				c-0.997,1.975-4.838,7.148-12.309,12.5c-6.298,4.511-16.289,9.896-28.099,9.896c-11.802,0-21.794-5.385-28.1-9.896
				c-7.47-5.351-11.312-10.525-12.309-12.5c0.997-1.974,4.839-7.147,12.309-12.5C24.389,11.031,34.381,5.646,46.183,5.646
				 M46.183,0.052C20.679,0.052,0,22.447,0,28.042c0,5.597,20.679,27.991,46.183,27.991c25.512,0,46.191-22.394,46.191-27.991
				C92.374,22.447,71.694,0.052,46.183,0.052L46.183,0.052z M41.666,28.042"/>
			<path fill="#F8F8F8" d="M26.741,25.531l-3.97,1.04v2.992l3.972,1.034c0.106,0.824,0.266,1.647,0.483,2.464l-3.332,2.482
				l1.125,2.768l4.112-0.561c0.459,0.813,0.972,1.58,1.527,2.306L28.585,43.6l2.111,2.11l3.538-2.083
				c0.665,0.514,1.359,0.978,2.079,1.398l-0.587,4.073l2.748,1.158l2.496-3.266c0.884,0.243,1.79,0.429,2.703,0.546l1.036,3.98
				l2.985-0.002l1.03-3.98c0.821-0.11,1.642-0.271,2.459-0.488l2.474,3.338l2.764-1.124l-0.56-4.127
				c0.811-0.457,1.577-0.972,2.298-1.527l3.542,2.075l2.107-2.115l-2.08-3.548c0.51-0.666,0.977-1.362,1.396-2.085l4.064,0.589
				l1.156-2.757l-3.259-2.5c0.243-0.886,0.427-1.792,0.546-2.711l3.972-1.039l-0.004-2.992l-3.97-1.031
				c-0.106-0.823-0.266-1.648-0.484-2.467l3.333-2.479l-1.124-2.769l-4.115,0.56c-0.459-0.811-0.968-1.579-1.527-2.305l2.075-3.549
				l-2.11-2.11l-3.541,2.084c-0.659-0.51-1.358-0.975-2.078-1.398l0.588-4.075l-2.748-1.16l-2.497,3.27
				c-0.885-0.243-1.787-0.427-2.702-0.546l-1.037-3.982L44.681,4.57l-1.033,3.982c-0.82,0.106-1.642,0.27-2.46,0.484l-2.473-3.34
				l-2.764,1.131l0.56,4.12c-0.811,0.462-1.576,0.977-2.301,1.534l-3.538-2.078l-2.107,2.116l2.079,3.547
				c-0.511,0.668-0.974,1.362-1.395,2.084l-4.065-0.587l-1.155,2.753l3.26,2.504C27.043,23.708,26.858,24.614,26.741,25.531
				 M47.225,12.959c8.311,0.572,14.581,7.789,14.008,16.119c-0.574,8.333-7.774,14.621-16.085,14.05
				c-8.308-0.572-14.581-7.79-14.008-16.122C31.714,18.676,38.917,12.387,47.225,12.959"/>
			<path fill="#366FB7" d="M54.175,26.577c-4.457,0-8.097-3.618-8.097-8.098c0-0.626,0.086-1.232,0.216-1.816
				c-0.019,0-0.041,0-0.108,0c-6.191,0-11.237,5.045-11.237,11.233c0,6.194,5.046,11.238,11.237,11.238
				c6.193,0,11.237-5.044,11.237-11.238c0-0.646-0.086-1.319-0.193-1.946C56.319,26.36,55.281,26.577,54.175,26.577z"/>
		</g>
		<g>
			<path fill="#F8F8F8" d="M149.733,55.967h-14.516l-13.448-15.37l-7.152,10.888v4.482h-10.993V0.145h10.993v31.38l20.601-31.38
				h12.915l-20.174,30.847L149.733,55.967z"/>
			<path fill="#F8F8F8" d="M168.977,11.139V28.11h16.33v10.993h-16.33v16.864h-10.994V39.103V28.11V11.139V0.145h10.994h25.723
				v10.994H168.977z"/>
			<path fill="#F8F8F8" d="M236.86,40.277c0,10.141-8.005,15.69-18.572,15.69c-8.966,0-15.156-3.628-18.785-8.751l8.325-6.725
				c2.241,3.202,5.23,5.55,10.14,5.55c4.696,0,7.686-2.348,7.686-5.55c0-3.843-3.096-5.23-8.219-7.472l-2.775-1.174
				c-8.111-3.522-13.448-7.792-13.448-16.971c0-8.432,6.404-14.836,16.437-14.836c6.298,0,11.101,2.028,14.623,7.044l-8.005,6.618
				c-1.814-2.775-3.736-3.842-6.618-3.842c-3.309,0-5.443,2.134-5.443,4.803c0,3.416,2.135,4.696,6.938,6.831l2.774,1.174
				C231.523,26.722,236.86,30.884,236.86,40.277z"/>
		</g>
	</g>
	<g>
		<path fill="#366FB7" d="M54.086,97.483c-0.528-0.106-1.004-0.265-1.426-0.476c-0.371-0.158-0.728-0.384-1.07-0.674
			c-0.345-0.291-0.568-0.673-0.674-1.148c0.105-1.796,0.423-3.936,0.951-6.42c0.422-2.061,1.043-4.597,1.862-7.608
			c0.818-3.012,1.994-6.446,3.527-10.304c0.158-0.527,0.316-1.03,0.476-1.506c0.104-0.422,0.21-0.845,0.316-1.268
			c0.105-0.423,0.159-0.793,0.159-1.109c0-0.105-0.014-0.185-0.04-0.238c-0.027-0.052-0.04-0.105-0.04-0.158
			c0.105,0.053,0.437,0.172,0.991,0.356c0.555,0.186,1.136,0.436,1.743,0.753s1.162,0.701,1.665,1.149
			c0.501,0.449,0.753,0.965,0.753,1.545c0,0.635-0.133,1.321-0.396,2.061c-1.639,3.541-3.118,6.896-4.438,10.065
			c-0.582,1.375-1.137,2.748-1.664,4.122c-0.529,1.374-0.991,2.708-1.387,4.002c-0.396,1.296-0.728,2.484-0.991,3.566
			c-0.265,1.083-0.396,1.994-0.396,2.734c0,0.105,0.013,0.198,0.04,0.277C54.072,97.285,54.086,97.377,54.086,97.483z
			 M61.457,67.287c-0.634-0.264-1.097-0.713-1.387-1.347c-0.291-0.635-0.437-1.32-0.437-2.062c0-1.319,0.383-2.377,1.149-3.17
			c0.766-0.792,1.677-1.188,2.734-1.188c1.057,0,1.915,0.384,2.576,1.149c0.66,0.766,0.99,1.624,0.99,2.575
			c0,1.058-0.476,2.035-1.427,2.933c-0.95,0.899-1.98,1.348-3.091,1.348C62.144,67.525,61.774,67.446,61.457,67.287z"/>
		<path fill="#366FB7" d="M72.87,92.411c-0.74-1.057-1.109-2.457-1.109-4.2c0-1.427,0.198-2.919,0.594-4.479
			c0.396-1.558,0.858-3.051,1.388-4.478c-0.476,0.899-0.991,1.876-1.546,2.933c-0.555,1.058-1.097,2.113-1.625,3.17
			c-0.528,1.058-1.03,2.088-1.506,3.091c-0.476,1.005-0.898,1.851-1.268,2.536c-0.317,0.635-0.595,1.137-0.832,1.506
			c-0.238,0.37-0.529,0.714-0.872,1.03c-0.345,0.317-0.727,0.502-1.149,0.555c-1.268,0.105-2.114-0.356-2.536-1.387
			s-0.634-2.338-0.634-3.923c0-1.744,0.237-3.527,0.713-5.35c0.476-1.823,1.003-3.474,1.585-4.954
			c0.581-1.479,1.136-2.681,1.665-3.605c0.527-0.924,0.845-1.387,0.951-1.387c0.368,0,0.805,0.093,1.308,0.277
			c0.501,0.186,1.017,0.409,1.545,0.673c0.581,0.266,1.189,0.582,1.823,0.951c-0.424,0.899-0.965,1.902-1.625,3.012
			c-0.661,1.109-1.308,2.299-1.941,3.566c-0.634,1.269-1.189,2.59-1.665,3.963c-0.475,1.375-0.713,2.722-0.713,4.042
			c1.744-3.116,3.25-5.679,4.518-7.688c1.269-2.008,2.338-3.618,3.21-4.835c0.872-1.215,1.585-2.14,2.14-2.773
			s1.003-1.162,1.348-1.585c0.343-0.423,0.595-0.818,0.753-1.189c0.158-0.369,0.316-0.924,0.476-1.664
			c0.052,0,0.277,0.119,0.674,0.356c0.396,0.238,0.805,0.555,1.229,0.951c0.422,0.396,0.818,0.82,1.188,1.269
			c0.369,0.449,0.555,0.911,0.555,1.387c0,0.158-0.04,0.449-0.119,0.872s-0.225,0.74-0.436,0.951
			c-0.424,0.898-0.951,1.901-1.585,3.012c-0.634,1.109-1.242,2.271-1.823,3.486c-0.582,1.217-1.083,2.432-1.506,3.646
			c-0.424,1.216-0.634,2.352-0.634,3.407c0,0.582,0.065,1.07,0.198,1.467c0.131,0.396,0.436,0.595,0.911,0.595
			c0.687,0,1.598-0.542,2.734-1.625c1.136-1.082,2.231-2.84,3.289-5.271l0.158-0.079c0.159,0,0.317,0.079,0.476,0.237l0.159,0.159
			c0,0.106-0.173,0.621-0.516,1.545c-0.344,0.925-0.832,1.941-1.466,3.052c-0.635,1.109-1.414,2.113-2.338,3.012
			c-0.926,0.898-1.97,1.347-3.131,1.347c-0.476,0-0.979-0.106-1.506-0.316C73.847,93.469,73.346,93.045,72.87,92.411z"/>
		<path fill="#366FB7" d="M94.189,73.628c0.052,0.265,0.065,0.528,0.039,0.792c-0.026,0.266-0.066,0.45-0.118,0.555
			c0.052,1.269,0.343,2.854,0.871,4.756c0.527,1.902,0.924,4.069,1.189,6.499c0.105,1.321-0.094,2.484-0.596,3.487
			c-0.502,1.004-1.188,1.85-2.06,2.536c-0.872,0.688-1.862,1.216-2.972,1.585c-1.11,0.369-2.193,0.555-3.25,0.555
			c-1.216,0-2.259-0.198-3.131-0.595c-0.871-0.396-1.599-0.897-2.179-1.506c-0.581-0.606-1.017-1.268-1.308-1.981
			c-0.29-0.713-0.437-1.387-0.437-2.021c0-0.793,0.198-1.492,0.595-2.101c0.396-0.606,0.965-0.963,1.704-1.069
			c0.476-0.793,1.003-1.717,1.585-2.774c0.581-1.057,1.175-2.126,1.783-3.21c0.606-1.082,1.175-2.126,1.704-3.13
			c0.527-1.004,1.003-1.85,1.427-2.536c0.104-0.211,0.224-0.502,0.356-0.872c0.131-0.369,0.25-0.726,0.356-1.07
			c0.105-0.343,0.238-0.646,0.396-0.911c0.158-0.264,0.317-0.396,0.476-0.396c0.581,0.37,1.136,0.74,1.664,1.109
			c0.423,0.317,0.818,0.674,1.188,1.07C93.845,72.796,94.083,73.205,94.189,73.628z M86.739,91.46c0.634,0,1.255-0.105,1.862-0.316
			s1.176-0.516,1.704-0.912c0.527-0.396,0.951-0.884,1.269-1.466c0.316-0.581,0.476-1.215,0.476-1.902
			c0-0.634-0.119-1.373-0.357-2.219c-0.237-0.845-0.515-1.73-0.832-2.655c-0.316-0.924-0.621-1.823-0.911-2.694
			c-0.291-0.872-0.516-1.651-0.674-2.339c-0.898,1.321-1.85,2.683-2.854,4.082c-1.004,1.4-1.901,2.655-2.694,3.765
			c1.057-0.264,1.915-0.396,2.576-0.396c0.66,0,0.963-0.025,0.911-0.079c0.052,0,0.105,0.027,0.158,0.079
			c0.105,0.106,0.159,0.266,0.159,0.476c0,0.159-0.277,0.291-0.832,0.396c-0.556,0.106-1.177,0.265-1.863,0.476
			c-0.687,0.212-1.308,0.476-1.862,0.793c-0.555,0.316-0.832,0.792-0.832,1.426c0,0.317,0.119,0.674,0.356,1.07
			c0.238,0.396,0.555,0.767,0.951,1.109c0.396,0.345,0.884,0.647,1.466,0.911C85.497,91.329,86.105,91.46,86.739,91.46z"/>
		<path fill="#366FB7" d="M98.627,92.411c-0.793-1.003-1.189-2.403-1.189-4.2c0-1.585,0.238-3.196,0.714-4.835
			c0.476-1.637,1.003-3.17,1.585-4.597c0.581-1.427,1.122-2.694,1.625-3.805c0.501-1.109,0.805-1.928,0.911-2.456
			c-0.054,0.106,0.119,0.237,0.515,0.396c0.396,0.159,0.833,0.396,1.308,0.714c0.476,0.316,0.924,0.727,1.348,1.229
			c0.423,0.503,0.634,1.149,0.634,1.941c0,0.582-0.265,1.269-0.792,2.061h-0.079c-0.899,1.691-1.811,3.487-2.734,5.39
			c-0.926,1.902-1.388,3.699-1.388,5.39c0,0.582,0.08,1.058,0.238,1.426c0.158,0.371,0.527,0.556,1.109,0.556
			c0.898,0,2.008-0.542,3.329-1.625c1.32-1.082,2.509-2.84,3.566-5.271l0.158-0.079c0.211,0,0.396,0.079,0.555,0.237l0.159,0.159
			c0-0.053-0.119,0.384-0.357,1.308c-0.237,0.925-0.673,1.955-1.308,3.091c-0.634,1.137-1.493,2.18-2.575,3.13
			c-1.084,0.951-2.445,1.427-4.082,1.427c-0.528,0-1.084-0.106-1.664-0.316C99.63,93.469,99.103,93.045,98.627,92.411z
			 M109.088,70.141c-0.265,0.582-0.661,1.058-1.188,1.427c-0.528,0.37-1.084,0.555-1.664,0.555c-0.741,0-1.269-0.264-1.585-0.793
			c-0.317-0.527-0.476-1.136-0.476-1.822c0-0.845,0.25-1.532,0.753-2.061c0.501-0.528,1.121-0.793,1.862-0.793
			c0.739,0,1.347,0.237,1.822,0.713s0.714,1.058,0.714,1.744C109.326,69.48,109.247,69.823,109.088,70.141z"/>
		<path fill="#366FB7" d="M128.98,74.262c0,0.106,0.013,0.198,0.04,0.277c0.025,0.079,0.039,0.172,0.039,0.277
			c0,0.158,0.013,0.252,0.04,0.277c0.025,0.027,0.039,0.054,0.039,0.079c0,0.027-0.027,0.093-0.079,0.198
			c-0.053,0.106-0.132,0.317-0.237,0.635h-0.079c-1.269,2.694-2.643,5.654-4.122,8.876c-1.479,3.224-2.773,6.473-3.883,9.749
			c1.003,0.052,2.033,0.131,3.091,0.237c1.057,0.105,2.007,0.304,2.854,0.595c0.844,0.289,1.531,0.713,2.061,1.268
			c0.527,0.555,0.792,1.28,0.792,2.18c0,0.687-0.172,1.373-0.515,2.061c-0.345,0.687-0.793,1.294-1.348,1.823
			c-0.555,0.527-1.188,0.963-1.902,1.308c-0.713,0.343-1.44,0.515-2.18,0.515c-1.374,0-2.668-0.528-3.883-1.585
			c-1.217-1.058-1.956-2.431-2.22-4.121c-0.951,0.105-2.061,0.25-3.328,0.436c-1.269,0.185-2.484,0.383-3.646,0.595
			c-1.162,0.211-2.14,0.448-2.932,0.714c-0.793,0.264-1.189,0.501-1.189,0.713c-0.264-1.109-0.304-2.034-0.119-2.774
			c0.187-0.74,0.464-1.347,0.833-1.822c0.37-0.476,0.767-0.82,1.188-1.03c0.424-0.212,0.74-0.345,0.951-0.396
			c1.268-0.212,2.588-0.356,3.963-0.436c1.373-0.08,2.905-0.173,4.597-0.277c0.052-0.266,0.105-0.489,0.158-0.674
			c0.052-0.185,0.105-0.409,0.158-0.674c-0.475,0.265-0.978,0.476-1.506,0.634s-1.188,0.264-1.98,0.317
			c-1.269,0.052-2.299-0.212-3.092-0.793c-0.792-0.581-1.414-1.28-1.862-2.1s-0.765-1.677-0.951-2.576
			c-0.185-0.897-0.303-1.664-0.356-2.299c-0.052-1.426,0.186-2.944,0.714-4.557c0.527-1.611,1.294-3.091,2.298-4.438
			c1.003-1.348,2.206-2.47,3.606-3.368c1.399-0.898,2.944-1.399,4.636-1.506c1.057-0.052,1.955,0.039,2.695,0.277
			c0.739,0.237,1.399,0.489,1.981,0.753c0.264-0.423,0.515-0.845,0.753-1.269c0.237-0.422,0.383-0.871,0.436-1.347
			c0.581,0.316,1.109,0.634,1.585,0.951c0.423,0.265,0.819,0.582,1.189,0.95c0.369,0.371,0.606,0.767,0.713,1.189V74.262z
			 M118.598,91.063c0.581-2.377,1.241-4.648,1.981-6.815c0.739-2.166,1.399-4.094,1.981-5.786c-1.004-0.792-2.167-1.161-3.487-1.109
			c-0.951,0.054-1.901,0.37-2.853,0.951c-0.951,0.582-1.811,1.348-2.576,2.299c-0.767,0.951-1.374,2.021-1.823,3.21
			c-0.449,1.188-0.647,2.365-0.594,3.526c0,0.582,0.065,1.177,0.198,1.783c0.131,0.608,0.356,1.163,0.674,1.664
			c0.316,0.503,0.753,0.899,1.308,1.189c0.555,0.291,1.28,0.41,2.179,0.356c0.581-0.052,1.229-0.211,1.942-0.476
			C118.241,91.593,118.598,91.329,118.598,91.063z M123.908,98.038c-0.582,0.053-1.177,0.105-1.783,0.159
			c-0.608,0.052-1.202,0.131-1.783,0.237h0.079h-0.158c-0.106,0-0.186,0.013-0.238,0.04c-0.053,0.025-0.132,0.039-0.237,0.039
			l-1.269,0.238c0.159,0.052,0.344,0.079,0.555,0.079c0.159,0.052,0.304,0.079,0.437,0.079c0.131,0,0.25,0.026,0.356,0.079
			c0.264,1.057,0.779,1.981,1.546,2.774c0.765,0.792,1.65,1.188,2.654,1.188c0.687,0,1.467-0.291,2.338-0.872
			c0.872-0.582,1.309-1.479,1.309-2.694c0-0.424-0.173-0.767-0.516-1.03c-0.344-0.265-0.965-0.396-1.862-0.396
			c-0.212,0-0.437,0-0.674,0S124.172,97.985,123.908,98.038z"/>
		<path fill="#366FB7" d="M141.026,78.542c-0.634,1.004-1.36,2.167-2.18,3.487c-0.819,1.321-1.599,2.643-2.338,3.962
			c-0.74,1.321-1.414,2.536-2.021,3.646c-0.608,1.109-0.991,1.955-1.149,2.536c0-0.053-0.054,0.014-0.158,0.198
			c-0.106,0.186-0.266,0.396-0.476,0.634c-0.212,0.237-0.464,0.463-0.753,0.674c-0.291,0.21-0.622,0.316-0.991,0.316
			c-0.212,0-0.489-0.014-0.832-0.039c-0.344-0.027-0.674-0.159-0.99-0.396c-0.317-0.238-0.595-0.606-0.833-1.109
			c-0.237-0.502-0.356-1.255-0.356-2.259c0-1.162,0.159-2.522,0.476-4.082c0.317-1.558,0.714-3.183,1.189-4.874
			c0.476-1.69,1.017-3.381,1.624-5.072c0.607-1.69,1.189-3.275,1.744-4.756c0.555-1.479,1.056-2.773,1.506-3.883
			c0.448-1.11,0.778-1.929,0.99-2.457l0.555-1.665c0.159-0.475,0.304-0.95,0.437-1.426c0.131-0.476,0.198-0.872,0.198-1.189
			c0.104,0.054,0.396,0.173,0.871,0.356c0.476,0.187,0.978,0.437,1.506,0.753c0.528,0.317,1.003,0.701,1.427,1.149
			c0.423,0.45,0.634,0.991,0.634,1.625c0,0.688-0.132,1.321-0.396,1.902c-0.266,0.528-0.674,1.347-1.229,2.457
			c-0.555,1.109-1.177,2.377-1.863,3.804s-1.387,2.946-2.1,4.558c-0.714,1.612-1.375,3.197-1.981,4.755
			c-0.608,1.56-1.109,3.012-1.506,4.359s-0.595,2.471-0.595,3.368c0.052,0,0.079-0.026,0.079-0.079
			c1.586-2.483,3.092-4.716,4.518-6.697c1.427-1.981,2.668-3.686,3.726-5.112c1.268-1.689,2.43-3.17,3.487-4.438
			c0.264-0.423,0.515-0.819,0.753-1.189c0.237-0.369,0.515-1.082,0.832-2.14c0.052,0,0.264,0.119,0.634,0.356
			c0.369,0.238,0.779,0.543,1.229,0.912c0.448,0.37,0.858,0.792,1.229,1.268c0.369,0.476,0.555,0.925,0.555,1.348
			c0,0.212,0,0.436,0,0.674c0,0.237-0.053,0.436-0.158,0.594c-0.424,0.846-0.965,1.851-1.625,3.012
			c-0.661,1.163-1.308,2.378-1.941,3.646c-0.635,1.268-1.177,2.55-1.625,3.844c-0.449,1.295-0.674,2.523-0.674,3.685
			c0,0.582,0.065,1.07,0.198,1.467c0.131,0.396,0.436,0.595,0.911,0.595c0.687,0,1.598-0.542,2.734-1.625
			c1.136-1.082,2.206-2.84,3.21-5.271l0.158-0.079c0.211,0,0.396,0.079,0.556,0.237l0.158,0.159c0,0.106-0.172,0.634-0.516,1.585
			s-0.832,1.969-1.466,3.051c-0.634,1.084-1.414,2.074-2.338,2.973c-0.925,0.898-1.969,1.347-3.131,1.347
			c-1.058,0-2.021-0.487-2.893-1.466c-0.872-0.978-1.308-2.417-1.308-4.319c0-1.532,0.237-3.157,0.713-4.874
			S140.444,80.021,141.026,78.542z"/>
		<path fill="#366FB7" d="M163.217,70.141c-0.582,0.053-1.058,0.119-1.427,0.198c-0.37,0.079-1.058,0.146-2.061,0.198
			c-0.687,1.427-1.453,3.064-2.298,4.913c-0.846,1.851-1.652,3.686-2.418,5.509s-1.4,3.526-1.901,5.112
			c-0.503,1.585-0.753,2.88-0.753,3.883c0,1.109,0.448,1.665,1.347,1.665s2.021-0.542,3.369-1.625
			c1.347-1.082,2.548-2.84,3.605-5.271l0.159-0.079c0.158,0,0.316,0.079,0.475,0.237l0.159,0.159c0-0.317-0.093-0.04-0.277,0.832
			c-0.186,0.871-0.568,1.915-1.149,3.13c-0.582,1.217-1.414,2.352-2.497,3.408c-1.083,1.058-2.549,1.585-4.398,1.585
			c-0.423,0-0.885-0.066-1.387-0.198c-0.503-0.131-0.951-0.396-1.348-0.792c-0.396-0.396-0.727-0.911-0.99-1.546
			c-0.264-0.634-0.396-1.479-0.396-2.536c0-1.268,0.172-2.707,0.516-4.319c0.343-1.611,0.765-3.249,1.268-4.914
			c0.502-1.664,1.057-3.314,1.664-4.953c0.607-1.637,1.201-3.143,1.783-4.518c-1.691-0.317-2.853-0.779-3.486-1.387
			c-0.635-0.607-0.951-1.122-0.951-1.546c0-0.21,0.052-0.422,0.158-0.634c1.161,0.74,2.721,1.109,4.676,1.109
			c0.581,0,0.991-0.369,1.229-1.109c0.238-0.739,0.409-1.269,0.516-1.585l0.555-1.665c0.158-0.475,0.303-0.95,0.436-1.426
			c0.132-0.476,0.198-0.872,0.198-1.189c0.105,0.054,0.396,0.159,0.872,0.317s0.977,0.396,1.506,0.713
			c0.527,0.317,1.003,0.714,1.427,1.189c0.422,0.476,0.634,1.03,0.634,1.664c0,0.265-0.027,0.608-0.079,1.03
			c-0.054,0.424-0.212,0.846-0.476,1.269c3.593-0.687,6.524-1.149,8.797-1.388c2.271-0.237,4.411-0.356,6.42-0.356
			c1.744,0,3.156,0.067,4.24,0.198c1.082,0.133,1.835,0.305,2.259,0.516c0.527,0.265,1.003,0.607,1.427,1.03
			c0.369,0.37,0.699,0.806,0.99,1.308c0.29,0.503,0.437,1.123,0.437,1.862c0,0.212-0.054,0.621-0.159,1.229
			c-0.106,0.607-0.237,0.911-0.396,0.911c-0.159,0-0.489-0.119-0.991-0.356c-0.503-0.238-1.348-0.516-2.536-0.832
			c-1.188-0.317-2.801-0.595-4.835-0.832c-2.034-0.238-4.663-0.357-7.886-0.357C167.443,69.902,165.437,69.982,163.217,70.141z"/>
	</g>
</g>
</svg>
